<svg width="32" height="32" viewBox="0 0 32 32" fill="none" xmlns="http://www.w3.org/2000/svg">
<g clip-path="url(#clip0_0_3)">
<path fill-rule="evenodd" clip-rule="evenodd" d="M31.414 28.497C31.789 28.869 32 29.375 31.999 29.901C31.999 30.428 31.788 30.933 31.413 31.305C31.38 31.678 30.529 31.887 29.998 31.887C29.468 31.886 28.959 31.677 28.584 31.305L20.885 23.66C20.813 23.586 20.749 23.511 20.689 23.432C18.48 25.356 14.773 26.219 11.519 25.849C8.264 25.479 5.27 23.901 3.136 21.434C1.2 18.966 0.114 15.788 0.9 12.538C0.133 9.287 1.488 6.203 3.804 3.902C6.119 1.601 9.225 0.253 12.498 0.128C15.772 0.3 18.973 1.11 21.46 3.227C23.947 5.344 25.538 8.315 25.913 11.547C26.288 14.778 25.421 18.3 23.485 20.654C23.566 20.714 23.643 20.78 23.714 20.852L31.414 28.497ZM20.779 5.299C18.716 3.251 15.918 2.101 13.1 2.101C10.83 2.101 7.286 3.251 5.223 5.299C3.16 7.347 2.1 10.125 2.1 13.22C2.1 14.456 2.286 15.876 2.838 17.201C3.391 18.526 4.202 19.73 5.223 20.745C6.244 21.759 7.457 22.563 8.791 23.112C10.126 23.661 11.556 23.943 13.1 23.943C14.445 23.943 15.876 23.661 17.21 23.112C18.545 22.563 19.757 21.759 20.779 20.745C21.8 19.73 22.61 18.526 23.163 17.201C23.716 15.876 24 14.456 24 13.22C24 10.125 22.841 7.347 20.779 5.299Z" fill="#9965E3"/>
</g>
<defs>
<clipPath id="clip0_0_3">
<rect width="32" height="32" fill="white"/>
</clipPath>
</defs>
</svg>
