<svg width="40" height="40" viewBox="0 0 40 40" fill="none" xmlns="http://www.w3.org/2000/svg">
<path fill-rule="evenodd" clip-rule="evenodd" d="M34.142 34.141C30.391 37.892 25.304 39.999 19.999 39.999C14.695 39.999 9.608 37.892 5.857 34.141C2.107 30.391 0 25.303 0 19.999C0 14.695 2.107 9.608 5.857 5.857C9.608 2.106 14.695 0 19.999 0C25.304 0 30.391 2.106 34.142 5.857C37.892 9.608 39.999 14.695 39.999 19.999C39.999 25.303 37.892 30.391 34.142 34.141ZM29.237 12.814C29.213 12.604 29.112 12.41 28.952 12.272C28.724 12.115 28.453 12.33 28.177 12.39C27.427 12.52 26.269 12.454 20.717 14.764C18.772 15.574 14.882 17.249 9.52 19.789C8.107 20.164 7.609 20.534 7.564 20.894C7.489 21.502 8.252 21.742 9.289 22.69L9.727 22.207C10.747 22.539 12.122 22.927 12.834 22.942C13.484 22.957 14.207 22.692 15.4 22.142C20.452 18.464 23.264 16.607 23.439 16.567C23.564 16.537 23.739 16.502 23.854 16.607C23.972 16.709 23.959 16.907 23.947 16.959C23.872 17.282 20.879 20.62 19.332 21.502C18.849 21.952 18.507 22.269 18.437 22.342C18.283 22.499 18.126 22.654 17.967 22.807C17.17 23.722 16.307 24.407 18.4 25.527C18.822 26.67 19.477 26.509 20.129 26.954C20.839 27.439 21.549 27.922 22.469 28.527C22.702 28.677 22.927 28.839 23.144 28.994C23.972 29.584 24.719 30.114 25.637 30.29C26.172 29.979 26.724 29.479 27.4 27.979C27.667 24.437 28.969 16.764 29.269 13.602C29.288 13.339 29.277 13.75 29.237 12.814Z" fill="#73C22E"/>
</svg>
