<svg width="40" height="40" viewBox="0 0 40 40" fill="none" xmlns="http://www.w3.org/2000/svg">
<g clip-path="url(#clip0_1_12)">
<path fill-rule="evenodd" clip-rule="evenodd" d="M19.999 39.199C9.395 39.199 0.799 30.603 0.799 19.999C0.799 9.395 9.395 0.799 19.999 0.799C30.603 0.799 39.199 9.395 39.199 19.999C39.199 30.603 30.603 39.199 19.999 39.199ZM29.659 14.841C29.609 14.691 29.343 14.633 28.955 14.633H25.393C25.307 14.632 25.222 14.652 25.145 14.691C25.41 14.753 24.953 14.913 24.923 14.965C24.589 15.842 24.191 16.694 23.733 17.513C22.249 20.59 21.701 20.59 21.519 20.59C21.439 20.59 21.36 20.36 21.291 19.993C20.767 19.647 20.791 18.805 20.811 18.63C20.811 17.927 20.817 17.799 20.817 17.679C20.817 17.127 20.835 16.659 20.853 16.245C20.911 14.787 20.897 14.361 20.237 14.203C19.911 14.121 19.679 14.63 18.779 14.51H18.317C17.487 14.51 16.651 14.85 16.187 14.317C16.3 14.396 15.893 14.512 15.789 14.655C16.45 14.703 16.467 14.833 16.715 15.175C17.61 15.647 17.63 16.631 17.63 16.725C17.93 17.225 17.219 19.635 16.543 20.11C16.458 20.58 16.362 20.82 16.265 20.83C15.747 20.83 15.101 19.331 14.47 17.479C13.397 16.343 13.1 15.333 12.893 15.79C12.801 14.861 12.669 14.615 12.265 14.615H9.235C8.897 14.615 8.587 14.809 8.737 15.171C8.757 15.223 11.137 20.819 13.781 23.609C15.941 25.887 18.379 26.51 18.847 26.51H20.221C20.475 26.51 20.835 25.789 20.835 25.333C20.835 23.873 21.327 23.325 21.711 23.201C21.773 23.181 21.837 23.171 21.901 23.171C22.409 23.171 22.913 23.755 23.495 24.431C23.885 24.885 24.285 25.351 24.691 25.635C25.219 25.999 25.655 26.53 25.863 26.53H28.863C29.27 26.41 29.507 25.905 29.647 25.629C29.731 25.463 29.691 25.241 29.521 24.955C29.517 24.947 29.511 24.931 29.499 24.915C29.81 24.137 27.383 22.461 27.383 22.461C25.817 20.995 25.817 20.897 27.291 18.965L28.17 18.7C29.643 15.805 29.747 15.79 29.659 14.841Z" fill="#73C22E"/>
</g>
<defs>
<clipPath id="clip0_1_12">
<rect width="40" height="40" fill="white"/>
</clipPath>
</defs>
</svg>
